<?xml version="1.0" encoding="utf-8"?>
<svg viewBox="42.2894 14.3123 130.2437 132.2303" width="130.2437" height="132.2303" xmlns="http://www.w3.org/2000/svg">
  <path d="M 143.333 15.109 C 139.333 16.209 129.633 22.309 129.633 23.709 C 129.633 24.009 133.533 26.109 138.333 28.409 C 148.733 33.309 157.533 41.209 162.533 50.109 L 165.833 55.909 L 167.633 53.609 C 170.433 49.909 172.533 42.909 172.533 37.309 C 172.433 22.109 158.033 11.209 143.333 15.109 Z M 54.833 16.809 C 50.333 19.009 45.333 24.509 43.433 29.309 C 41.433 34.609 42.133 43.909 44.933 49.509 C 46.333 52.309 47.933 54.809 48.433 55.109 C 48.933 55.409 50.733 53.209 52.433 50.209 C 57.333 41.609 66.633 33.209 76.833 28.209 L 85.633 23.909 L 81.633 20.809 C 79.533 19.109 76.133 17.009 74.133 16.209 C 68.933 14.009 59.933 14.309 54.833 16.809 Z M 70.033 65.609 C 62.233 69.209 55.633 77.709 53.533 87.109 C 50.633 100.209 61.033 113.609 74.233 113.709 L 78.333 113.709 L 79.033 108.609 C 79.433 105.809 81.833 99.309 84.533 93.909 C 91.233 80.409 92.133 76.609 90.033 71.009 C 88.933 68.209 87.333 66.109 85.533 65.209 C 81.633 63.209 74.833 63.409 70.033 65.609 Z M 83.033 78.709 C 86.733 82.809 83.933 89.709 78.433 89.709 C 75.633 89.709 71.533 85.809 71.533 83.209 C 71.533 82.509 72.433 80.809 73.633 79.309 C 76.133 76.109 80.433 75.809 83.033 78.709 Z M 129.433 65.209 C 127.933 66.009 126.033 68.309 125.033 70.309 C 122.533 75.709 123.633 81.209 130.033 94.009 C 134.133 102.309 135.533 106.009 135.533 109.309 L 135.533 113.709 L 139.333 113.709 C 145.033 113.709 149.633 112.109 153.933 108.509 C 161.933 101.909 163.833 91.009 158.733 80.209 C 155.633 73.709 149.433 67.409 143.933 65.109 C 139.733 63.309 132.833 63.409 129.433 65.209 Z M 140.733 78.409 C 142.933 80.409 143.033 85.409 140.833 87.909 C 137.433 91.709 129.533 88.709 129.533 83.509 C 129.533 80.509 133.333 76.709 136.333 76.709 C 137.733 76.709 139.733 77.409 140.733 78.409 Z M 92.533 109.409 C 92.533 109.909 93.533 112.009 94.833 114.209 C 101.833 126.609 116.233 125.009 121.533 111.309 L 122.533 108.709 L 107.533 108.709 C 99.233 108.709 92.533 109.009 92.533 109.409 Z M 69.033 133.109 C 78.633 141.709 97.133 147.509 111.533 146.409 C 124.533 145.409 140.133 139.209 145.933 132.809 C 147.433 131.109 146.833 131.209 141.333 133.509 C 131.733 137.409 122.133 137.309 113.533 133.009 L 107.133 129.809 L 104.233 131.909 C 100.533 134.609 93.333 136.709 88.033 136.709 C 83.333 136.709 74.933 134.409 69.033 131.509 L 65.033 129.609 L 69.033 133.109 Z" transform="matrix(0.9999999999999999, 0, 0, 0.9999999999999999, -3.552713678800501e-15, -3.552713678800501e-15)"/>
</svg>